<?xml version="1.0" encoding="UTF-8"?>
<svg version="1.1" xmlns="http://www.w3.org/2000/svg" width="512" height="512">
<path d="M0 0 C1.75942691 1.50991754 3.5097336 3.03053822 5.25 4.5625 C6.08015625 5.25988281 6.9103125 5.95726562 7.765625 6.67578125 C19.32791912 16.62008138 28.05396256 28.17807884 35.25 41.5625 C35.56952637 42.15224609 35.88905273 42.74199219 36.21826172 43.34960938 C52.04808843 73.17224161 54.24436936 108.41028301 44.90893555 140.5559082 C34.93582712 172.75530353 12.81231363 199.71064156 -16.7734375 215.79296875 C-25.13783247 220.18260647 -33.68487349 223.86122688 -42.75 226.5625 C-43.69528564 226.85664795 -43.69528564 226.85664795 -44.65966797 227.15673828 C-66.00340607 233.55306068 -93.541552 233.32643178 -114.75 226.5625 C-115.52794922 226.32112305 -116.30589844 226.07974609 -117.10742188 225.83105469 C-149.44029695 215.54096834 -176.93448399 193.59060068 -192.7890625 163.45703125 C-208.89152001 131.82108012 -212.71399798 95.92539129 -201.6875 61.9375 C-196.28711229 46.26032045 -188.52627795 32.15686165 -177.75 19.5625 C-176.90953125 18.55960938 -176.0690625 17.55671875 -175.203125 16.5234375 C-159.12242466 -2.15917189 -138.14976272 -14.23870697 -114.75 -21.4375 C-114.04456055 -21.66195801 -113.33912109 -21.88641602 -112.61230469 -22.11767578 C-75.60655144 -33.38894658 -29.94888521 -24.09295794 0 0 Z M-147.5625 36 C-167.35898426 56.50552739 -174.33176698 80.98722443 -174.03125 108.90234375 C-173.31735002 134.14227751 -160.44521455 156.72408142 -142.62890625 174.05078125 C-124.11277604 190.20528834 -102.95516037 196.70056459 -78.75 198.5625 C-78.75 135.2025 -78.75 71.8425 -78.75 6.5625 C-104.89693518 6.5625 -128.99809632 18.09140406 -147.5625 36 Z " fill="#000000" transform="translate(334.75,153.4375)"/>
<path d="M0 0 C4.36906356 3.40786958 6.70880697 6.45320683 7.46875 11.90234375 C7.71753854 18.79585944 6.10305214 23.12591082 1.54052734 28.45776367 C0.52260132 29.51534794 -0.5044128 30.56423973 -1.5390625 31.60546875 C-2.09056976 32.16696121 -2.64207703 32.72845367 -3.21029663 33.30696106 C-4.3746879 34.48647043 -5.54311536 35.66200755 -6.71533203 36.83374023 C-8.48990759 38.61487032 -10.23909036 40.41858824 -11.98828125 42.22460938 C-23.4291813 53.84001324 -23.4291813 53.84001324 -30.875 54.4375 C-37.17065258 54.00733888 -41.57340055 52.25119462 -45.875 47.4375 C-48.29579613 43.01654253 -49.27817528 38.88126095 -48.5 33.875 C-45.64987143 24.5249533 -35.9351011 17.28505264 -29.25 10.5625 C-28.31247115 9.60419489 -27.37497099 8.64586171 -26.4375 7.6875 C-25.53773437 6.78257812 -24.63796875 5.87765625 -23.7109375 4.9453125 C-22.90188965 4.12691895 -22.0928418 3.30852539 -21.25927734 2.46533203 C-15.39310712 -2.52385596 -6.93674616 -3.48332297 0 0 Z " fill="#000000" transform="translate(140.875,365.5625)"/>
<path d="M0 0 C5.62853806 5.08858669 11.09662924 10.32627514 16.49169922 15.66162109 C17.384375 16.52529297 18.27705078 17.38896484 19.19677734 18.27880859 C24.8648477 23.89143508 28.58635574 28.00356518 29.61669922 36.09912109 C28.87166295 42.16584504 26.92521452 46.27193544 22.11669922 50.09912109 C17.56531988 52.52006755 14.31826892 53.08285631 9.17919922 52.66162109 C1.27075679 49.76785011 -4.1247056 44.03479894 -9.94067383 38.1730957 C-11.6297275 36.47770778 -13.34374929 34.8107699 -15.06103516 33.14404297 C-26.13827822 22.19823445 -26.13827822 22.19823445 -26.82080078 14.66162109 C-26.39741732 8.36786308 -24.63062799 3.95976455 -19.82080078 -0.33837891 C-13.30207254 -3.90785728 -6.21717291 -4.56993053 0 0 Z " fill="#000000" transform="translate(118.82080078125,95.33837890625)"/>
<path d="M0 0 C4.96592669 2.30560882 7.41978039 5.22082111 10 10 C10.57098662 13.33824707 10.56124181 16.61943061 10.53125 20 C10.5350769 20.95390625 10.53890381 21.9078125 10.54284668 22.890625 C10.54556036 24.90105245 10.53823737 26.91151553 10.52148438 28.921875 C10.50006709 31.99038787 10.52130466 35.05655952 10.546875 38.125 C10.54423163 40.08333848 10.53910645 42.0416755 10.53125 44 C10.53934692 44.91265625 10.54744385 45.8253125 10.55578613 46.765625 C10.47405684 52.34723968 9.72311686 55.57473138 6 60 C2.18069828 63.62833663 -0.88279006 64.31000458 -6 64.5 C-11.11720994 64.31000458 -14.18069828 63.62833663 -18 60 C-22.42898965 54.73573631 -22.58960225 50.57725694 -22.53125 44 C-22.5350769 43.04609375 -22.53890381 42.0921875 -22.54284668 41.109375 C-22.54556036 39.09894755 -22.53823737 37.08848447 -22.52148438 35.078125 C-22.50006709 32.00961213 -22.52130466 28.94344048 -22.546875 25.875 C-22.54423163 23.91666152 -22.53910645 21.9583245 -22.53125 20 C-22.53934692 19.08734375 -22.54744385 18.1746875 -22.55578613 17.234375 C-22.47405684 11.65276032 -21.72311686 8.42526862 -18 4 C-12.72867143 -1.00776214 -6.89190982 -0.92775709 0 0 Z " fill="#000000" transform="translate(262,416)"/>
<path d="M0 0 C0.95390625 -0.0038269 1.9078125 -0.00765381 2.890625 -0.01159668 C4.90105245 -0.01431036 6.91151553 -0.00698737 8.921875 0.00976562 C11.99038787 0.03118291 15.05655952 0.00994534 18.125 -0.015625 C20.08333848 -0.01298163 22.0416755 -0.00785645 24 0 C25.36898437 -0.01214539 25.36898437 -0.01214539 26.765625 -0.02453613 C32.34723968 0.05719316 35.57473138 0.80813314 40 4.53125 C43.62833663 8.35055172 44.31000458 11.41404006 44.5 16.53125 C44.31000458 21.64845994 43.62833663 24.71194828 40 28.53125 C34.73573631 32.96023965 30.57725694 33.12085225 24 33.0625 C22.56914063 33.06824036 22.56914063 33.06824036 21.109375 33.07409668 C19.09894755 33.07681036 17.08848447 33.06948737 15.078125 33.05273438 C12.00961213 33.03131709 8.94344048 33.05255466 5.875 33.078125 C3.91666152 33.07548163 1.9583245 33.07035645 0 33.0625 C-1.36898437 33.07464539 -1.36898437 33.07464539 -2.765625 33.08703613 C-8.34723968 33.00530684 -11.57473138 32.25436686 -16 28.53125 C-19.62833663 24.71194828 -20.31000458 21.64845994 -20.5 16.53125 C-20.31000458 11.41404006 -19.62833663 8.35055172 -16 4.53125 C-10.73573631 0.10226035 -6.57725694 -0.05835225 0 0 Z " fill="#000000" transform="translate(52,239.46875)"/>
<path d="M0 0 C4.96592669 2.30560882 7.41978039 5.22082111 10 10 C10.57098662 13.33824707 10.56124181 16.61943061 10.53125 20 C10.5350769 20.95390625 10.53890381 21.9078125 10.54284668 22.890625 C10.54556036 24.90105245 10.53823737 26.91151553 10.52148438 28.921875 C10.50006709 31.99038787 10.52130466 35.05655952 10.546875 38.125 C10.54423163 40.08333848 10.53910645 42.0416755 10.53125 44 C10.53934692 44.91265625 10.54744385 45.8253125 10.55578613 46.765625 C10.47405684 52.34723968 9.72311686 55.57473138 6 60 C2.18069828 63.62833663 -0.88279006 64.31000458 -6 64.5 C-11.11720994 64.31000458 -14.18069828 63.62833663 -18 60 C-22.42898965 54.73573631 -22.58960225 50.57725694 -22.53125 44 C-22.5350769 43.04609375 -22.53890381 42.0921875 -22.54284668 41.109375 C-22.54556036 39.09894755 -22.53823737 37.08848447 -22.52148438 35.078125 C-22.50006709 32.00961213 -22.52130466 28.94344048 -22.546875 25.875 C-22.54423163 23.91666152 -22.53910645 21.9583245 -22.53125 20 C-22.53934692 19.08734375 -22.54744385 18.1746875 -22.55578613 17.234375 C-22.47405684 11.65276032 -21.72311686 8.42526862 -18 4 C-12.72867143 -1.00776214 -6.89190982 -0.92775709 0 0 Z " fill="#000000" transform="translate(262,32)"/>
</svg>
